<svg width="112" height="100" viewBox="0 0 112 100" fill="none" xmlns="http://www.w3.org/2000/svg">
<path d="M104.058 54.0775C104.983 54.0799 105.9 53.8997 106.756 53.5471C107.611 53.1945 108.389 52.6765 109.044 52.0228C109.699 51.3691 110.219 50.5924 110.574 49.7374C110.929 48.8823 111.111 47.9657 111.111 47.0399C111.111 46.1142 110.929 45.1975 110.574 44.3425C110.219 43.4874 109.699 42.7108 109.044 42.0571C108.389 41.4033 107.611 40.8853 106.756 40.5328C105.9 40.1802 104.983 40 104.058 40.0024C103.903 40.0024 103.757 40.0383 103.605 40.0482L101.244 30.7327C102.028 30.1472 102.68 29.4041 103.159 28.5511C103.639 27.6982 103.934 26.7543 104.027 25.7803C104.12 24.8062 104.008 23.8235 103.698 22.8953C103.389 21.9671 102.889 21.114 102.23 20.3909C101.571 19.6678 100.768 19.0906 99.8725 18.6966C98.9773 18.3025 98.0095 18.1002 97.0314 18.1028C96.0533 18.1054 95.0866 18.3127 94.1934 18.7115C93.3002 19.1103 92.5003 19.6916 91.8452 20.4182L67.8804 9.27302C68.131 8.56037 68.2637 7.81155 68.2731 7.05613C68.2755 6.13039 68.0954 5.21325 67.7429 4.35728C67.3905 3.5013 66.8727 2.72329 66.2193 2.06782C65.5658 1.41236 64.7895 0.892313 63.9348 0.537481C63.0801 0.182648 62.1638 0 61.2384 0C60.3131 0 59.3968 0.182648 58.5421 0.537481C57.6874 0.892313 56.9111 1.41236 56.2576 2.06782C55.6042 2.72329 55.0864 3.5013 54.7339 4.35728C54.3815 5.21325 54.2014 6.13039 54.2038 7.05613C54.2155 7.29731 54.2398 7.53771 54.2768 7.77633L39.0174 12.4542C37.9653 11.1397 36.4751 10.2482 34.8197 9.94287C33.1643 9.63752 31.4543 9.93875 30.0027 10.7914C28.5511 11.6441 27.455 12.9912 26.915 14.5862C26.3749 16.1812 26.4271 17.9175 27.0619 19.4771L12.7009 32.2982C11.6187 31.6362 10.3761 31.283 9.10763 31.2767C7.42831 31.2716 5.8029 31.8695 4.52684 32.9617C3.25078 34.0539 2.40876 35.5678 2.15382 37.2284C1.89887 38.8889 2.24793 40.5859 3.13755 42.0108C4.02716 43.4357 5.39829 44.4941 7.00172 44.9934L6.04851 54.1392C4.97752 54.2885 3.95551 54.6834 3.06226 55.2931C2.16901 55.9027 1.42869 56.7107 0.899109 57.6538C0.369524 58.597 0.0650008 59.6499 0.00931205 60.7302C-0.0463767 61.8105 0.148276 62.8891 0.578075 63.8818C1.00787 64.8745 1.66119 65.7543 2.48701 66.4527C3.31284 67.151 4.28883 67.649 5.33879 67.9077C6.38875 68.1663 7.48426 68.1788 8.53982 67.944C9.59537 67.7091 10.5824 67.2334 11.4238 66.554L16.1572 68.6365C16.156 68.6871 16.1425 68.7341 16.1425 68.7846C16.1403 70.5438 16.7975 72.2398 17.9844 73.5378C19.1713 74.8358 20.8016 75.6413 22.5533 75.7952C24.305 75.9492 26.0507 75.4404 27.4456 74.3693C28.8406 73.2983 29.7833 71.7428 30.0877 70.0102H35.4968C35.9204 71.5406 36.8508 72.8817 38.1358 73.8139C39.4208 74.7461 40.9841 75.2141 42.5698 75.1414C44.1554 75.0686 45.6693 74.4593 46.8636 73.4134C48.0579 72.3674 48.8617 70.9467 49.1434 69.3839L64.3687 69.8812C65.4828 70.8431 66.8761 71.4219 68.3436 71.5324C69.8111 71.6429 71.2753 71.2792 72.5208 70.495C81.1154 75.1859 88.3648 82.0024 93.5769 90.2937C93.2341 91.1292 93.0567 92.0234 93.0546 92.9265C93.0485 94.1289 93.3504 95.3128 93.9316 96.3653C94.5127 97.4178 95.3537 98.3037 96.3744 98.9387C97.395 99.5736 98.5612 99.9364 99.7618 99.9924C100.962 100.048 102.157 99.7956 103.233 99.2584C104.308 98.7211 105.228 97.9172 105.904 96.9233C106.58 95.9295 106.991 94.7788 107.097 93.581C107.202 92.3833 107 91.1785 106.507 90.0815C106.015 88.9844 105.251 88.0318 104.286 87.3145C101.825 83.7309 100.097 79.6956 99.2016 75.441C100.408 75.0572 101.487 74.352 102.322 73.4011C103.158 72.4502 103.719 71.2895 103.945 70.0436C104.171 68.7978 104.054 67.5138 103.606 66.3297C103.158 65.1455 102.395 64.1059 101.401 63.3224L104.052 54.0773L104.058 54.0775ZM106.824 47.0399C106.824 47.5872 106.662 48.1222 106.358 48.5773C106.054 49.0324 105.622 49.387 105.116 49.5965C104.611 49.8059 104.055 49.8607 103.518 49.754C102.982 49.6472 102.489 49.3837 102.102 48.9967C101.715 48.6097 101.452 48.1166 101.345 47.5798C101.238 47.043 101.293 46.4867 101.502 45.981C101.712 45.4754 102.066 45.0432 102.521 44.7391C102.976 44.4351 103.511 44.2728 104.058 44.2728C104.791 44.2731 105.495 44.5648 106.013 45.0836C106.532 45.6025 106.824 46.3061 106.824 47.0399ZM101.218 40.614C100.069 41.1275 99.0799 41.9401 98.3525 42.9668C97.6251 43.9936 97.1866 45.1969 97.0827 46.4511H91.5879C91.5077 45.4933 91.231 44.5623 90.7751 43.7163C90.3193 42.8702 89.6939 42.1272 88.9382 41.5338L95.835 32.0575C96.8901 32.2693 97.9823 32.2008 99.0027 31.8588L101.218 40.614ZM90.0774 67.9081L75.8723 64.2691C75.8154 62.683 75.219 61.1639 74.1817 59.963L79.9183 52.2412C80.7976 53.0704 81.8835 53.6479 83.0623 53.9133C84.2411 54.1787 85.4696 54.1222 86.6192 53.7498L92.7565 63.2302C92.023 63.794 91.4086 64.4978 90.9487 65.3007C90.4889 66.1037 90.1927 66.9899 90.0774 67.9081ZM38.8131 21.5153L58.8162 31.9846C58.3887 33.2275 58.3593 34.5729 58.7322 35.8334L45.8923 42.4395C45.2387 41.6783 44.4291 41.0667 43.5183 40.6461C42.6076 40.2256 41.617 40.0061 40.6139 40.0024C40.5562 40.0024 40.5027 40.0179 40.4453 40.0195L35.818 23.4983C36.9715 23.1087 38.0038 22.4252 38.8131 21.5153ZM93.45 31.1672L86.7531 40.3716C85.6229 39.9808 84.4091 39.8983 83.2364 40.1325C82.0638 40.3667 80.9747 40.9093 80.0812 41.7043L72.2866 35.819C72.555 34.9791 72.6139 34.0862 72.4581 33.2183L90.6228 28.0233C91.2219 29.3357 92.2086 30.4329 93.45 31.1672ZM84.6127 49.8071C84.0657 49.8071 83.5309 49.6448 83.076 49.3407C82.6211 49.0367 82.2666 48.6045 82.0573 48.0989C81.8479 47.5932 81.7931 47.0368 81.8999 46.5001C82.0066 45.9633 82.27 45.4702 82.6569 45.0832C83.0437 44.6962 83.5366 44.4327 84.0731 44.3259C84.6097 44.2191 85.1658 44.2739 85.6713 44.4834C86.1767 44.6928 86.6087 45.0475 86.9126 45.5026C87.2166 45.9576 87.3788 46.4926 87.3788 47.0399C87.3784 47.7737 87.0869 48.4773 86.5682 48.9962C86.0496 49.5151 85.3462 49.8067 84.6127 49.8071ZM65.5071 36.811C64.96 36.811 64.4252 36.6487 63.9703 36.3447C63.5155 36.0406 63.1609 35.6084 62.9516 35.1028C62.7422 34.5972 62.6874 34.0408 62.7941 33.504C62.9009 32.9672 63.1643 32.4741 63.5511 32.0871C63.938 31.7001 64.4308 31.4366 64.9674 31.3298C65.504 31.223 66.0601 31.2778 66.5655 31.4873C67.071 31.6967 67.503 32.0514 67.8069 32.5064C68.1108 32.9615 68.2731 33.4965 68.2731 34.0438C68.2727 34.7776 67.9812 35.4812 67.4625 36.0001C66.9439 36.519 66.2406 36.8106 65.5071 36.811ZM40.6139 44.2728C41.161 44.2728 41.6958 44.4351 42.1507 44.7391C42.6056 45.0432 42.9601 45.4754 43.1695 45.981C43.3788 46.4866 43.4336 47.043 43.3269 47.5798C43.2202 48.1166 42.9567 48.6097 42.5699 48.9967C42.183 49.3837 41.6902 49.6472 41.1536 49.754C40.6171 49.8607 40.0609 49.8059 39.5555 49.5965C39.05 49.387 38.618 49.0324 38.3141 48.5773C38.0102 48.1222 37.8479 47.5872 37.848 47.0399C37.8483 46.3061 38.1399 45.6025 38.6585 45.0837C39.1771 44.5648 39.8805 44.2732 40.6139 44.2728ZM47.6486 47.0399C47.6433 46.1829 47.48 45.3341 47.1668 44.5364L59.7519 38.0662C60.3977 38.9952 61.2582 39.7544 62.2603 40.2794C63.2623 40.8043 64.3762 41.0795 65.5073 41.0814C65.5486 41.0814 65.5869 41.0697 65.6279 41.0691L63.499 59.0133L44.3595 61.4367C43.9775 61.314 43.5857 61.2248 43.1883 61.1698L41.7261 53.965C43.3741 53.7016 44.8748 52.8603 45.9598 51.5916C47.0449 50.323 47.6434 48.7096 47.6486 47.0399ZM42.2377 65.3438C42.7848 65.3438 43.3196 65.5061 43.7744 65.8102C44.2293 66.1142 44.5838 66.5464 44.7932 67.052C45.0025 67.5577 45.0573 68.114 44.9506 68.6508C44.8438 69.1876 44.5804 69.6806 44.1936 70.0676C43.8067 70.4546 43.3139 70.7181 42.7773 70.8249C42.2408 70.9317 41.6846 70.8769 41.1792 70.6675C40.6738 70.458 40.2418 70.1033 39.9379 69.6483C39.634 69.1932 39.4717 68.6582 39.4717 68.111C39.4721 67.3772 39.7636 66.6736 40.2823 66.1547C40.8009 65.6358 41.5042 65.3442 42.2377 65.3438ZM47.5122 63.5061L62.4707 61.6153C62.0514 62.5157 61.8321 63.4963 61.828 64.4897C61.824 65.483 62.0351 66.4654 62.4471 67.3692L49.1533 66.9333C48.9338 65.661 48.3657 64.4745 47.5122 63.5061ZM68.157 40.5533C69.3964 40.0431 70.4651 39.1907 71.2383 38.0955L78.5185 43.5939C77.9287 44.5925 77.6055 45.726 77.5797 46.8855C77.554 48.0451 77.8266 49.1918 78.3715 50.2156L72.2826 58.4039C71.3495 57.862 70.3017 57.548 69.2245 57.4874C68.1472 57.4268 67.0709 57.6214 66.083 58.0553L68.157 40.5533ZM97.0233 22.3732C97.5704 22.3733 98.1051 22.5356 98.56 22.8396C99.0148 23.1437 99.3694 23.5758 99.5787 24.0815C99.788 24.5871 99.8428 25.1435 99.7361 25.6802C99.6293 26.217 99.3659 26.7101 98.9791 27.097C98.5922 27.484 98.0994 27.7476 97.5629 27.8543C97.0263 27.9611 96.4701 27.9063 95.9647 27.6969C95.4593 27.4874 95.0273 27.1328 94.7234 26.6777C94.4195 26.2227 94.2573 25.6877 94.2573 25.1404C94.2576 24.4066 94.5492 23.703 95.0678 23.1841C95.5865 22.6652 96.2898 22.3736 97.0233 22.3732ZM90.5133 22.4995C90.1686 23.3374 89.9904 24.2344 89.9886 25.1404C89.9886 25.312 90.0272 25.4731 90.0395 25.6415L71.7494 30.87C71.1666 29.7125 70.275 28.7389 69.1732 28.0569C68.0715 27.375 66.8026 27.0114 65.5071 27.0063C65.2926 27.0063 65.0906 27.0509 64.8808 27.0697L62.3286 13.9832C64.0548 13.7086 65.6156 12.7976 66.704 11.4295L90.5133 22.4995ZM61.2384 4.28895C61.7855 4.28895 62.3203 4.45123 62.7752 4.75528C63.23 5.05934 63.5846 5.49151 63.7939 5.99714C64.0033 6.50278 64.0581 7.05917 63.9514 7.59595C63.8446 8.13273 63.5812 8.6258 63.1944 9.0128C62.8075 9.3998 62.3147 9.66336 61.7781 9.77013C61.2415 9.87691 60.6854 9.82211 60.18 9.61267C59.6745 9.40323 59.2425 9.04856 58.9386 8.5935C58.6347 8.13843 58.4724 7.60343 58.4724 7.05613C58.4728 6.32235 58.7643 5.61871 59.283 5.09985C59.8016 4.58098 60.5049 4.28932 61.2384 4.28895ZM54.9438 10.1332C55.4129 11.0998 56.0967 11.9463 56.943 12.6079C57.7892 13.2695 58.7755 13.7288 59.8264 13.9506L62.5093 27.7038C61.4947 28.1883 60.6106 28.9085 59.9308 29.8043L40.1121 19.4287C40.741 17.9033 40.7803 16.1984 40.2222 14.6457L54.9438 10.1332ZM33.5793 14.0936C34.1264 14.0936 34.6611 14.2559 35.116 14.56C35.5709 14.8641 35.9254 15.2962 36.1348 15.8019C36.3441 16.3075 36.3989 16.8639 36.2922 17.4007C36.1854 17.9374 35.922 18.4305 35.5352 18.8175C35.1483 19.2045 34.6555 19.468 34.1189 19.5748C33.5824 19.6816 33.0262 19.6268 32.5208 19.4173C32.0154 19.2079 31.5834 18.8532 31.2794 18.3982C30.9755 17.9431 30.8133 17.4081 30.8133 16.8608C30.8136 16.127 31.1051 15.4234 31.6238 14.9045C32.1425 14.3856 32.8458 14.094 33.5793 14.0936ZM33.3799 23.878L38.0394 40.5067C36.6943 41.0387 35.5448 41.9708 34.7461 43.1772L16.1306 38.4308L16.1423 38.3141C16.1348 36.7118 15.5755 35.1611 14.5586 33.9232L28.3948 21.5746C29.0271 22.2755 29.7949 22.8409 30.6516 23.2368C31.5084 23.6326 32.4365 23.8508 33.3799 23.878ZM9.83352 61.0734C9.83352 61.6207 9.6713 62.1557 9.36736 62.6107C9.06343 63.0658 8.63145 63.4205 8.12603 63.6299C7.62061 63.8393 7.06446 63.8941 6.52792 63.7874C5.99137 63.6806 5.49852 63.4171 5.11169 63.0301C4.72486 62.6431 4.46142 62.15 4.35469 61.6132C4.24797 61.0765 4.30274 60.5201 4.51209 60.0145C4.72145 59.5088 5.07597 59.0767 5.53083 58.7726C5.9857 58.4686 6.52047 58.3063 7.06753 58.3063C7.80101 58.3066 8.50433 58.5983 9.02298 59.1172C9.54162 59.636 9.83315 60.3396 9.83352 61.0734ZM8.50793 54.187L9.43483 45.3187C10.7938 45.2549 12.105 44.7976 13.2091 44.0024C14.3131 43.2071 15.1625 42.1081 15.6539 40.839L33.7729 45.4622C33.5399 46.3876 33.517 47.3534 33.7059 48.2888L12.4267 56.5709C11.4244 55.3593 10.0443 54.5198 8.50793 54.187ZM9.10763 35.5471C9.65471 35.5471 10.1895 35.7093 10.6444 36.0134C11.0993 36.3174 11.4538 36.7496 11.6632 37.2553C11.8725 37.7609 11.9273 38.3173 11.8206 38.8541C11.7139 39.3908 11.4504 39.8839 11.0636 40.2709C10.6767 40.6579 10.1839 40.9215 9.64733 41.0282C9.11077 41.135 8.55461 41.0802 8.04918 40.8708C7.54375 40.6613 7.11175 40.3067 6.80781 39.8516C6.50387 39.3965 6.34165 38.8615 6.34165 38.3142C6.342 37.5805 6.63353 36.8768 7.15217 36.358C7.67082 35.8391 8.37415 35.5474 9.10763 35.5471ZM13.1092 64.6167C13.6459 63.7421 13.9754 62.7561 14.0722 61.7343C14.169 60.7126 14.0307 59.6822 13.6678 58.7222L34.5722 50.5829C35.0457 51.392 35.6762 52.0982 36.4266 52.66C37.1769 53.2217 38.0319 53.6277 38.9414 53.854L29.8033 66.5171C29.3455 65.1562 28.4806 63.969 27.3258 63.1162C26.1711 62.2634 24.7822 61.7863 23.3474 61.7495C21.9126 61.7127 20.5011 62.118 19.3042 62.9104C18.1072 63.7029 17.1827 64.8442 16.6557 66.1798L13.1092 64.6167ZM23.1769 71.5516C22.6298 71.5516 22.0951 71.3893 21.6402 71.0853C21.1854 70.7812 20.8308 70.349 20.6215 69.8434C20.4121 69.3378 20.3574 68.7814 20.4641 68.2446C20.5708 67.7079 20.8343 67.2148 21.2211 66.8278C21.6079 66.4408 22.1008 66.1773 22.6373 66.0705C23.1739 65.9638 23.73 66.0186 24.2355 66.228C24.7409 66.4374 25.1729 66.7921 25.4768 67.2472C25.7807 67.7022 25.9429 68.2372 25.9429 68.7845C25.9426 69.5183 25.651 70.2219 25.1324 70.7408C24.6137 71.2596 23.9104 71.5513 23.1769 71.5516ZM39.8731 55.3464L40.7485 61.2398C39.2772 61.5652 37.9494 62.355 36.961 63.4928C35.9726 64.6306 35.3759 66.056 35.2589 67.5589H31.8287L39.8731 55.3464ZM68.8626 67.2815C68.3155 67.2815 67.7807 67.1192 67.3258 66.8151C66.871 66.5111 66.5164 66.0789 66.3071 65.5732C66.0977 65.0676 66.043 64.5112 66.1497 63.9744C66.2564 63.4377 66.5199 62.9446 66.9067 62.5576C67.2936 62.1706 67.7864 61.9071 68.323 61.8003C68.8595 61.6935 69.4157 61.7483 69.9211 61.9578C70.4266 62.1672 70.8585 62.5219 71.1625 62.977C71.4664 63.432 71.6286 63.9671 71.6286 64.5144C71.6282 65.2481 71.3366 65.9517 70.818 66.4705C70.2993 66.9893 69.596 67.2811 68.8626 67.2815ZM100.089 95.6937C99.5422 95.6937 99.0074 95.5314 98.5526 95.2274C98.0977 94.9233 97.7432 94.4912 97.5338 93.9855C97.3245 93.4799 97.2697 92.9235 97.3764 92.3868C97.4832 91.85 97.7466 91.3569 98.1334 90.9699C98.5203 90.583 99.0131 90.3194 99.5497 90.2127C100.086 90.1059 100.642 90.1607 101.148 90.3701C101.653 90.5796 102.085 90.9342 102.389 91.3893C102.693 91.8443 102.855 92.3793 102.855 92.9266C102.855 93.6603 102.563 94.3639 102.045 94.8827C101.526 95.4015 100.823 95.6934 100.089 95.6937ZM100.089 85.8891C99.1556 85.8895 98.2314 86.0766 97.371 86.4394C96.5105 86.8021 95.7313 87.3332 95.0789 88.0015C89.8605 80.0065 82.779 73.3992 74.4434 68.7479C74.8528 68.2135 75.1828 67.6226 75.4232 66.9936L90.2368 70.5375C90.6172 72.0096 91.4646 73.3185 92.6518 74.2677C93.839 75.217 95.302 75.7553 96.8211 75.802C97.4298 79.3934 98.719 82.8353 100.619 85.9426C100.441 85.9289 100.271 85.8891 100.089 85.8891ZM97.0233 71.5519C96.4762 71.5519 95.9415 71.3896 95.4866 71.0855C95.0317 70.7815 94.6772 70.3493 94.4679 69.8437C94.2585 69.338 94.2037 68.7817 94.3105 68.2449C94.4172 67.7081 94.6806 67.2151 95.0675 66.8281C95.4543 66.4411 95.9471 66.1776 96.4837 66.0708C97.0202 65.964 97.5764 66.0188 98.0818 66.2282C98.5872 66.4377 99.0192 66.7924 99.3231 67.2474C99.6271 67.7025 99.7893 68.2375 99.7893 68.7847C99.7888 69.5185 99.4973 70.222 98.9787 70.7408C98.46 71.2596 97.7567 71.5515 97.0233 71.5519ZM99.199 62.1272C97.8247 61.6305 96.3216 61.6204 94.9407 62.0985L88.818 52.6452C90.0566 51.713 90.9522 50.397 91.365 48.9023H97.3056C97.6027 49.9755 98.1501 50.9628 98.903 51.7831C99.6559 52.6034 100.593 53.2331 101.636 53.6206L99.199 62.1272Z" fill="#07EAE5"/>
</svg>
